<?xml version="1.0" standalone="no"?>
<!DOCTYPE svg PUBLIC "-//W3C//DTD SVG 20010904//EN"
        "http://www.w3.org/TR/2001/REC-SVG-20010904/DTD/svg10.dtd">
<svg version="1.0" xmlns="http://www.w3.org/2000/svg"
     width="800.000000pt" height="800.000000pt" viewBox="0 0 800.000000 800.000000"
     preserveAspectRatio="xMidYMid meet">
    <metadata>
        Created by potrace 1.11, written by Peter Selinger 2001-2013
    </metadata>
    <g transform="translate(0.000000,800.000000) scale(0.100000,-0.100000)"
       fill="#000000" stroke="none">
        <path d="M6000 6714 c-155 -15 -433 -91 -613 -168 -28 -12 -77 -33 -107 -46
-172 -74 -528 -270 -740 -409 -144 -94 -413 -285 -430 -306 -13 -16 -1 -21 16
-6 5 5 54 32 109 61 144 76 178 95 300 175 498 327 931 529 1305 612 153 34
389 38 490 9 176 -52 295 -171 346 -346 26 -90 26 -348 0 -470 -64 -294 -177
-579 -378 -950 -23 -41 -94 -163 -158 -270 -64 -107 -134 -229 -155 -270 -21
-41 -58 -110 -83 -153 -47 -83 -52 -114 -7 -50 14 21 52 74 83 118 69 98 272
412 272 421 0 3 8 18 19 32 42 60 190 346 268 517 91 200 150 379 195 585 30
140 32 400 4 500 -55 193 -182 326 -369 385 -64 20 -108 26 -202 29 -66 2
-140 2 -165 0z"/>
        <path d="M3780 5530 c-217 -32 -478 -132 -655 -250 -190 -128 -396 -345 -508
-538 -33 -56 -82 -156 -114 -232 -8 -20 -11 0 -17 104 -8 141 -16 177 -27 136
-4 -14 -7 -52 -8 -85 -1 -103 -22 -386 -35 -475 l-12 -85 -13 43 c-19 66 -35
53 -27 -20 l8 -63 -28 25 c-16 14 -33 30 -40 35 -6 6 -54 52 -107 103 -87 83
-117 106 -117 85 1 -10 80 -104 179 -212 40 -45 67 -81 59 -81 -8 0 -40 9 -71
19 -31 11 -59 16 -61 12 -3 -4 27 -26 66 -47 l71 -39 -109 -8 c-519 -37 -518
-36 -501 -53 3 -3 141 -9 306 -13 166 -4 304 -10 307 -14 4 -3 -23 -21 -60
-39 -105 -52 -83 -64 33 -18 l55 21 -44 -48 c-24 -26 -61 -66 -81 -88 -81 -88
-179 -206 -179 -216 0 -20 42 14 179 146 125 121 164 154 146 126 -3 -5 -9
-30 -14 -55 -6 -36 -5 -46 5 -46 7 0 16 9 19 20 22 69 33 -28 41 -370 5 -252
11 -323 23 -316 4 3 11 70 15 148 4 79 11 172 15 208 6 58 8 62 15 35 15 -51
116 -256 159 -320 256 -382 615 -626 1057 -718 145 -30 470 -32 600 -3 221 49
397 115 535 201 69 42 13 27 -106 -29 -119 -56 -220 -91 -354 -122 -66 -16
-121 -19 -320 -19 -259 0 -300 6 -495 72 -314 107 -592 321 -794 610 -20 29
-36 55 -36 57 0 3 -13 27 -29 55 -61 103 -124 264 -156 396 -9 39 -19 78 -21
87 -4 13 -1 16 10 12 20 -8 20 2 -3 87 l-20 70 37 -30 c20 -17 57 -49 82 -72
69 -62 100 -83 100 -67 0 8 -14 27 -31 44 -17 16 -58 59 -90 96 l-60 66 51
-19 c56 -21 63 -16 23 17 l-28 22 25 6 c14 3 143 10 288 15 152 5 268 13 274
19 13 13 -48 20 -257 27 -93 3 -210 8 -258 11 l-89 6 41 25 c49 29 54 46 9 31
-18 -5 -42 -12 -53 -16 -12 -3 8 26 53 76 101 112 87 128 -21 23 -48 -47 -87
-82 -87 -79 0 3 9 26 21 52 28 63 21 94 -10 46 l-23 -35 7 60 c4 33 16 97 26
143 118 500 476 915 953 1106 363 146 805 142 1166 -11 64 -27 195 -95 211
-109 17 -15 39 -19 39 -6 0 20 -236 142 -359 186 -179 64 -269 78 -506 82
-121 1 -245 -1 -275 -6z"/>
        <path d="M4132 4678 c-9 -9 -12 -99 -12 -344 0 -183 3 -339 6 -348 7 -20 33
-21 59 -3 11 8 45 27 75 44 30 17 69 38 86 48 l31 19 107 -63 c64 -38 115 -61
129 -59 l22 3 0 350 0 350 -27 3 c-16 2 -29 2 -30 0 -1 -2 -4 -141 -7 -310
l-6 -307 -85 49 c-47 27 -93 50 -102 50 -10 0 -55 -22 -100 -49 l-83 -49 -5
312 c-3 171 -7 312 -8 314 -6 7 -40 0 -50 -10z"/>
        <path d="M4756 4674 c-14 -13 -16 -50 -16 -244 0 -205 2 -235 20 -283 85 -228
389 -251 501 -38 l29 54 0 257 c0 212 -2 259 -14 263 -8 3 -21 0 -29 -6 -13
-10 -16 -51 -19 -253 l-3 -241 -30 -49 c-84 -136 -266 -136 -350 0 l-30 49 -3
244 c-3 225 -5 244 -22 253 -14 7 -23 6 -34 -6z"/>
        <path d="M4992 4678 c-13 -13 -17 -163 -6 -192 8 -21 50 -21 58 0 3 9 6 53 6
98 0 79 -9 106 -35 106 -6 0 -16 -5 -23 -12z"/>
        <path d="M5795 3844 c-68 -16 -131 -43 -172 -74 -174 -131 -192 -390 -37 -544
149 -149 393 -140 532 19 18 20 32 40 32 45 0 6 -17 10 -38 10 -29 0 -45 -7
-65 -28 -68 -70 -187 -98 -292 -68 -83 25 -166 108 -190 191 -83 285 254 497
474 299 39 -35 56 -44 85 -44 20 0 36 5 36 11 0 6 -28 39 -62 73 -46 46 -79
69 -121 84 -58 22 -146 35 -182 26z"/>
        <path d="M4244 3826 c-47 -21 -91 -74 -109 -133 -16 -50 -16 -57 0 -106 9 -29
29 -65 43 -80 50 -53 77 -61 219 -67 112 -5 135 -8 153 -25 67 -61 64 -149 -6
-204 -25 -20 -39 -21 -204 -21 -190 0 -209 -5 -195 -50 6 -19 14 -20 196 -20
152 0 196 3 220 16 125 64 146 230 42 325 -42 39 -84 49 -203 49 -95 0 -111 3
-141 23 -46 31 -61 62 -56 120 3 38 11 56 36 80 l31 32 190 5 c194 5 215 10
208 46 -3 18 -17 19 -198 21 -146 2 -203 -1 -226 -11z"/>
        <path d="M4729 3813 c-6 -17 -9 -148 -7 -355 3 -349 5 -361 50 -337 16 9 18
26 18 164 l0 155 90 0 c71 0 100 5 135 21 151 71 153 283 3 360 -31 16 -59 19
-158 19 l-120 0 -11 -27z m272 -66 c40 -27 61 -77 53 -127 -13 -81 -62 -110
-185 -110 l-79 0 0 130 0 130 89 0 c75 0 93 -3 122 -23z"/>
        <path d="M5293 3828 c-10 -13 -51 -88 -138 -253 -26 -49 -62 -117 -80 -150
-148 -275 -153 -289 -118 -302 23 -9 46 24 128 181 l70 136 102 0 101 0 7 -42
c3 -24 15 -90 27 -148 21 -110 38 -140 66 -118 16 14 11 86 -13 193 -14 62
-39 188 -76 380 -22 111 -31 135 -54 135 -7 0 -17 -6 -22 -12z m26 -208 c7
-36 14 -75 17 -87 4 -22 2 -23 -66 -23 -38 0 -70 2 -70 5 0 15 96 183 101 177
3 -4 12 -36 18 -72z"/>
        <path d="M6235 3827 c-3 -6 -4 -167 -3 -357 l3 -345 220 0 c209 0 220 1 223
19 8 40 -22 46 -210 46 l-178 0 0 125 0 124 156 3 c139 3 158 5 168 21 9 15 7
21 -8 33 -15 11 -55 14 -168 14 l-148 0 0 130 0 130 171 0 c98 0 178 4 190 10
23 13 25 46 3 54 -9 3 -105 6 -215 6 -151 0 -201 -3 -204 -13z"/>
        <path d="M2102 3747 c-218 -307 -406 -614 -542 -887 -152 -303 -237 -530 -287
-765 -22 -100 -26 -147 -26 -285 -1 -178 9 -230 60 -340 152 -326 560 -397
1144 -200 239 81 650 285 914 455 28 18 91 58 140 90 104 67 100 63 93 70 -7
8 -340 -155 -453 -222 -214 -127 -530 -275 -724 -339 -453 -150 -786 -136
-966 41 -59 58 -94 117 -125 211 -33 97 -33 343 -1 494 23 111 71 274 101 350
10 25 31 77 45 115 27 71 191 409 242 500 85 151 114 198 248 405 24 36 69
115 100 175 32 61 68 129 82 153 45 80 17 66 -45 -21z"/>
    </g>
</svg>
